<svg width="206" height="231" viewBox="0 0 206 231" fill="none" xmlns="http://www.w3.org/2000/svg">
<path d="M143.143 84C143.143 96.1503 133.293 106 121.143 106C108.992 106 99.1426 96.1503 99.1426 84C99.1426 71.8497 108.992 62 121.143 62C133.293 62 143.143 71.8497 143.143 84Z" fill="#FFC131"/>
<ellipse cx="84.1426" cy="147" rx="22" ry="22" transform="rotate(180 84.1426 147)" fill="#24C8DB"/>
<path fill-rule="evenodd" clip-rule="evenodd" d="M166.738 154.548C157.86 160.286 148.023 164.269 137.757 166.341C139.858 160.282 141 153.774 141 147C141 144.543 140.85 142.121 140.558 139.743C144.975 138.204 149.215 136.139 153.183 133.575C162.73 127.404 170.292 118.608 174.961 108.244C179.63 97.8797 181.207 86.3876 179.502 75.1487C177.798 63.9098 173.884 53.4021 167.182 44.8883C160.481 36.3744 151.264 30.2165 140.893 27.1546C130.522 24.0926 119.424 24.2568 109.141 27.6274C98.8588 30.9981 89.8056 37.4317 83.304 46.1553C76.8023 54.8789 73.1895 65.4946 72.8698 76.5281C72.5501 87.5615 75.5383 98.6827 81.5092 108.384C85.5842 115.632 91.0801 122.018 97.6564 127.226C96.0099 129.413 94.2295 131.474 92.3271 133.393C92.2691 133.451 92.2108 133.509 92.1523 133.567C90.7171 128.815 89.9826 123.854 89.9826 118.741C89.9826 104.908 96.1275 92.8158 105.847 84.1213C115.568 75.4267 128.173 70.9999 141.626 70.9999C149.925 70.9999 157.798 72.9146 164.828 76.3932C171.858 79.8718 177.775 84.7979 182.182 90.8293C186.589 96.8606 189.35 103.836 190.242 111.151C191.133 118.466 190.133 125.885 187.326 132.696C184.518 139.507 179.992 145.516 174.177 150.191C168.362 154.867 161.47 158.062 154.037 159.524C149.786 160.456 145.443 160.897 141.077 160.838C139.423 168.484 136.684 175.716 132.992 182.322C145.301 181.931 157.337 178.753 168.234 173.066C179.131 167.38 188.656 159.32 196.234 149.424C203.812 139.527 209.279 128.027 212.254 115.706C215.229 103.386 215.644 90.5859 213.476 78.1153C211.308 65.6447 206.61 53.8056 199.693 43.5151C192.777 33.2246 183.835 24.7572 173.475 18.706C163.114 12.6548 151.628 9.18482 139.823 8.56845C128.017 7.95208 116.203 10.1935 105.431 14.9983C94.6594 19.8032 85.2389 27.0438 77.8839 35.9756C70.5288 44.9074 65.4418 55.3028 63.037 66.4814C60.6322 77.66 61.0069 89.3051 64.1364 100.334C67.2659 111.363 73.0646 121.388 80.9788 129.611C84.4015 133.243 88.1905 136.527 92.2823 139.391C90.8769 140.982 89.5398 142.64 88.2761 144.358C87.6839 145.182 87.104 146.015 86.5368 146.858C81.2284 142.521 76.4701 137.467 72.4172 131.847C66.3722 123.296 62.1904 113.678 60.1298 103.483C58.0691 93.2883 58.1823 82.7762 60.4636 72.6334C62.7449 62.4906 67.1419 52.9649 73.3693 44.6631C79.5966 36.3613 87.5106 29.4881 96.5408 24.4932C105.571 19.4982 115.51 16.4995 125.806 15.7093C136.102 14.919 146.528 16.3549 156.378 19.9284C166.227 23.5019 175.287 29.1277 182.977 36.4181C190.667 43.7084 196.808 52.4985 200.962 62.2941C205.117 72.0897 207.196 82.6506 207.071 93.2996C206.946 103.949 204.621 114.442 200.249 124.048C195.877 133.655 189.554 142.168 181.696 149.014C173.838 155.86 164.636 160.893 154.696 163.775C147.685 165.907 140.408 166.973 133.097 166.957C129.267 173.898 124.516 180.194 118.993 185.657C120.749 185.697 122.508 185.717 124.269 185.717C138.612 185.717 152.571 181.898 164.909 174.703C177.246 167.508 187.547 157.155 194.789 144.68C202.032 132.205 205.973 118.026 206.235 103.577C206.498 89.1289 203.072 74.8056 196.245 62.0824C189.417 49.3591 179.397 38.6542 167.063 30.9572C154.729 23.2602 140.525 18.8417 125.892 18.1126C111.259 17.3835 96.6797 20.3616 83.4665 26.7539C70.2533 33.1463 58.8795 42.7509 50.3077 54.6889C41.7359 66.6269 36.2399 80.4642 34.3816 94.9388C32.5233 109.413 34.3524 124.077 39.6929 137.613C45.0334 151.148 53.6985 163.073 64.8506 172.477C76.0027 181.881 89.2227 188.453 103.429 191.654C117.636 194.855 132.433 194.577 146.517 190.845C160.601 187.114 173.552 179.983 184.413 170.15C184.626 170.011 184.838 169.871 185.049 169.73C186.1 169.048 187.141 168.351 188.172 167.639C184.5 175.144 179.694 182.083 173.897 188.244C160.711 201.953 143.718 210.243 125.337 211.923C106.956 213.603 88.7471 208.586 73.2816 197.583C57.8161 186.58 46.1179 170.282 39.7538 151.558C33.3896 132.834 32.6978 112.598 37.7696 93.5024C42.8414 74.4069 53.4445 57.3618 68.4304 44.7351C83.4163 32.1084 101.974 24.5461 121.556 23.0474C141.137 21.5487 160.885 26.1811 177.822 36.338C194.758 46.4949 208.216 61.7605 216.533 79.6769C224.85 97.5933 227.701 117.432 224.775 136.853C221.849 156.274 213.254 174.525 200.11 189.262C186.966 203.999 170.852 214.663 152.958 220.177C135.063 225.691 116.019 225.838 97.9939 220.606C79.9685 215.373 63.7103 205.027 50.4078 190.682C37.1054 176.337 27.2357 158.554 21.8609 139.273C16.4861 119.992 15.7992 99.8134 19.8648 80.3388C23.9303 60.8641 32.6267 42.7035 45.1615 27.5845C57.6963 12.4655 73.6344 0.906098 91.4204 -6.64924C109.206 -14.2046 128.286 -16.9522 147.059 -14.6846C165.832 -12.417 183.743 -5.19706 199.003 5.94986C214.262 17.0968 226.396 32.2046 234.271 49.7053C242.146 67.206 245.543 86.5484 244.198 105.858C242.854 125.168 236.804 143.869 226.688 160.214C220.416 170.787 212.608 180.393 203.529 188.779C196.652 195.362 189.11 201.254 180.994 206.378C180.967 206.395 180.94 206.413 180.913 206.43C180.779 206.51 180.645 206.59 180.51 206.669C180.428 206.716 180.346 206.762 180.264 206.809C180.082 206.911 179.9 207.013 179.717 207.114C179.653 207.148 179.589 207.183 179.525 207.218C179.299 207.34 179.072 207.461 178.845 207.581C178.806 207.6 178.767 207.619 178.728 207.638C178.486 207.763 178.243 207.887 178 208.01C177.979 208.02 177.958 208.03 177.937 208.04C177.686 208.164 177.434 208.287 177.182 208.409C177.156 208.421 177.129 208.434 177.103 208.446C176.85 208.567 176.597 208.687 176.343 208.806C176.32 208.816 176.296 208.827 176.273 208.838C176.017 208.956 175.76 209.074 175.503 209.191C175.476 209.202 175.449 209.213 175.422 209.225C175.164 209.341 174.906 209.456 174.647 209.571C174.625 209.58 174.603 209.59 174.581 209.599C174.32 209.713 174.058 209.827 173.796 209.94C173.771 209.95 173.745 209.96 173.72 209.971C173.457 210.083 173.194 210.194 172.93 210.305C172.908 210.314 172.885 210.323 172.863 210.332C172.598 210.442 172.332 210.552 172.066 210.661C172.037 210.672 172.009 210.683 171.98 210.694C171.713 210.802 171.446 210.91 171.178 211.017C171.153 211.026 171.128 211.036 171.103 211.045C170.834 211.151 170.565 211.257 170.295 211.362C170.266 211.372 170.237 211.382 170.208 211.392C169.938 211.497 169.667 211.601 169.396 211.705C169.37 211.714 169.344 211.723 169.318 211.732C169.046 211.835 168.773 211.938 168.5 212.04C168.468 212.051 168.437 212.062 168.405 212.073C168.132 212.174 167.858 212.275 167.584 212.375C167.558 212.384 167.531 212.394 167.505 212.403C167.23 212.503 166.955 212.602 166.679 212.701C166.648 212.711 166.617 212.722 166.586 212.732C166.31 212.831 166.034 212.929 165.757 213.027C165.73 213.036 165.703 213.045 165.676 213.054C165.398 213.151 165.121 213.248 164.843 213.344C164.812 213.353 164.781 213.363 164.75 213.372C164.472 213.468 164.194 213.563 163.915 213.658C163.888 213.666 163.861 213.675 163.834 213.684C163.555 213.778 163.276 213.872 162.996 213.965C162.965 213.974 162.934 213.983 162.903 213.992C162.623 214.084 162.343 214.176 162.062 214.268C162.035 214.276 162.008 214.284 161.981 214.293C161.7 214.384 161.419 214.475 161.137 214.565C161.106 214.573 161.074 214.582 161.043 214.591C160.761 214.681 160.479 214.77 160.196 214.859C160.169 214.867 160.142 214.875 160.115 214.883C159.832 214.971 159.549 215.059 159.265 215.146C159.234 215.154 159.203 215.162 159.172 215.17C158.888 215.257 158.604 215.343 158.319 215.429C158.292 215.437 158.265 215.444 158.238 215.452C157.953 215.537 157.668 215.622 157.382 215.707C157.351 215.715 157.32 215.722 157.289 215.73C157.003 215.814 156.717 215.898 156.431 215.981C156.404 215.989 156.377 215.996 156.35 216.004C156.064 216.086 155.777 216.168 155.49 216.25C155.459 216.257 155.428 216.265 155.397 216.272C155.11 216.354 154.823 216.435 154.535 216.516C154.508 216.523 154.481 216.53 154.454 216.537C154.166 216.617 153.878 216.697 153.59 216.777C153.559 216.784 153.528 216.791 153.497 216.798C153.209 216.877 152.92 216.956 152.631 217.034C152.604 217.041 152.577 217.048 152.55 217.055C152.261 217.132 151.972 217.209 151.683 217.286C151.652 217.292 151.621 217.299 151.59 217.306C151.301 217.382 151.011 217.458 150.722 217.534C150.695 217.54 150.668 217.547 150.641 217.553C150.351 217.629 150.061 217.704 149.771 217.779C149.74 217.785 149.709 217.792 149.678 217.798C149.388 217.873 149.098 217.947 148.807 218.021C148.78 218.027 148.753 218.033 148.726 218.04C148.436 218.113 148.145 218.186 147.855 218.259C147.824 218.265 147.793 218.271 147.762 218.277C147.471 218.349 147.18 218.421 146.889 218.493C146.862 218.499 146.835 218.505 146.808 218.511C146.517 218.582 146.225 218.653 145.934 218.724C145.903 218.73 145.872 218.736 145.841 218.742C145.55 218.812 145.258 218.882 144.967 218.951C144.94 218.957 144.913 218.963 144.886 218.969C144.594 219.038 144.302 219.107 144.01 219.175C143.979 219.181 143.948 219.187 143.917 219.193C143.625 219.261 143.333 219.329 143.041 219.396C143.014 219.402 142.987 219.408 142.96 219.414C142.668 219.481 142.375 219.548 142.083 219.614C142.052 219.62 142.021 219.626 141.99 219.632C141.697 219.698 141.405 219.763 141.112 219.828C141.085 219.834 141.058 219.84 141.031 219.846C140.739 219.91 140.446 219.975 140.153 220.039C140.122 220.045 140.091 220.051 140.06 220.057C139.767 220.12 139.474 220.184 139.181 220.247C139.154 220.252 139.127 220.258 139.1 220.264C138.807 220.326 138.514 220.389 138.221 220.451C138.19 220.456 138.159 220.462 138.128 220.468C137.835 220.529 137.541 220.591 137.248 220.652C137.221 220.658 137.194 220.663 137.167 220.669C136.874 220.729 136.58 220.79 136.287 220.85C136.256 220.856 136.225 220.861 136.194 220.867C135.9 220.927 135.607 220.986 135.313 221.046C135.286 221.051 135.259 221.057 135.232 221.062C134.939 221.121 134.645 221.18 134.351 221.239C134.32 221.244 134.289 221.25 134.258 221.255C133.964 221.313 133.67 221.372 133.376 221.43C133.349 221.435 133.322 221.441 133.295 221.446C133.001 221.504 132.707 221.561 132.413 221.619C132.382 221.624 132.351 221.629 132.32 221.635C132.026 221.692 131.732 221.749 131.437 221.805C131.41 221.811 131.383 221.816 131.356 221.821C131.062 221.877 130.768 221.933 130.474 221.989C130.443 221.994 130.412 221.999 130.381 222.005C130.087 222.06 129.792 222.115 129.498 222.17C129.471 222.175 129.444 222.18 129.417 222.185C129.123 222.24 128.829 222.294 128.534 222.348C128.503 222.353 128.472 222.358 128.441 222.364C128.147 222.417 127.852 222.471 127.558 222.524C127.531 222.529 127.504 222.534 127.477 222.539C127.183 222.591 126.888 222.644 126.594 222.696C126.563 222.701 126.532 222.706 126.501 222.711C126.206 222.763 125.912 222.814 125.617 222.866C125.59 222.871 125.563 222.876 125.536 222.881C125.242 222.932 124.947 222.983 124.653 223.034C124.622 223.039 124.591 223.044 124.56 223.049C124.265 223.099 123.971 223.149 123.676 223.199C123.649 223.204 123.622 223.209 123.595 223.214C123.301 223.263 123.006 223.313 122.712 223.362C122.681 223.367 122.65 223.372 122.619 223.377C122.324 223.426 122.03 223.475 121.735 223.523C121.708 223.528 121.681 223.533 121.654 223.538C121.36 223.586 121.065 223.634 120.77 223.682C120.739 223.687 120.708 223.692 120.677 223.697C120.383 223.744 120.088 223.791 119.793 223.838C119.766 223.843 119.739 223.848 119.712 223.853C119.418 223.899 119.123 223.946 118.828 223.992C118.797 223.997 118.766 224.002 118.735 224.007C118.441 224.052 118.146 224.098 117.851 224.143C117.824 224.148 117.797 224.153 117.77 224.158C117.476 224.203 117.181 224.248 116.886 224.293C116.855 224.298 116.824 224.303 116.793 224.308C116.499 224.352 116.204 224.396 115.909 224.44C115.882 224.445 115.855 224.45 115.828 224.455C115.534 224.498 115.239 224.542 114.944 224.585C114.913 224.59 114.882 224.595 114.851 224.6C114.557 224.643 114.262 224.686 113.967 224.728C113.94 224.733 113.913 224.738 113.886 224.743C113.592 224.785 113.297 224.827 113.002 224.869C112.971 224.874 112.94 224.879 112.909 224.884C112.615 224.925 112.32 224.967 112.025 225.008C111.998 225.013 111.971 225.018 111.944 225.023C111.65 225.064 111.355 225.105 111.06 225.145C111.029 225.15 110.998 225.155 110.967 225.16C110.673 225.2 110.378 225.241 110.083 225.281C110.056 225.286 110.029 225.291 110.002 225.296C109.708 225.336 109.413 225.376 109.118 225.415C109.087 225.42 109.056 225.425 109.025 225.43C108.731 225.469 108.436 225.509 108.141 225.548C108.114 225.553 108.087 225.558 108.06 225.563C107.766 225.602 107.471 225.641 107.176 225.679C107.145 225.684 107.114 225.689 107.083 225.694C106.789 225.732 106.494 225.771 106.199 225.809C106.172 225.814 106.145 225.819 106.118 225.824C105.824 225.862 105.529 225.9 105.234 225.937C105.203 225.942 105.172 225.947 105.141 225.952C104.847 225.989 104.552 226.027 104.257 226.064C104.23 226.069 104.203 226.074 104.176 226.079C103.882 226.116 103.587 226.153 103.292 226.189C103.261 226.194 103.23 226.199 103.199 226.204C102.905 226.24 102.61 226.277 102.315 226.313C102.288 226.318 102.261 226.323 102.234 226.328C101.94 226.364 101.645 226.4 101.35 226.436C101.319 226.441 101.288 226.446 101.257 226.451C100.963 226.486 100.668 226.522 100.373 226.557C100.346 226.562 100.319 226.567 100.292 226.572C99.998 226.607 99.703 226.643 99.408 226.678C99.377 226.683 99.346 226.688 99.315 226.693C99.021 226.728 98.726 226.763 98.431 226.798C98.404 226.803 98.377 226.808 98.35 226.813C98.056 226.847 97.761 226.882 97.466 226.916C97.435 226.921 97.404 226.926 97.373 226.931C97.079 226.965 96.784 226.999 96.489 227.033C96.462 227.038 96.435 227.043 96.408 227.048C96.114 227.082 95.819 227.116 95.524 227.149C95.493 227.154 95.462 227.159 95.431 227.164C95.137 227.197 94.842 227.231 94.547 227.264C94.52 227.269 94.493 227.274 94.466 227.279C94.172 227.312 93.877 227.345 93.582 227.378C93.551 227.383 93.52 227.388 93.489 227.393C93.195 227.425 92.9 227.458 92.605 227.49C92.578 227.495 92.551 227.5 92.524 227.505C92.23 227.537 91.935 227.569 91.64 227.601C91.609 227.606 91.578 227.611 91.547 227.616C91.253 227.648 90.958 227.68 90.663 227.711C90.636 227.716 90.609 227.721 90.582 227.726C90.288 227.757 89.993 227.789 89.698 227.82C89.667 227.825 89.636 227.83 89.605 227.835C89.311 227.866 89.016 227.897 88.721 227.928C88.694 227.933 88.667 227.938 88.64 227.943C88.346 227.974 88.051 228.005 87.756 228.035C87.725 228.04 87.694 228.045 87.663 228.05C87.369 228.08 87.074 228.111 86.779 228.141C86.752 228.146 86.725 228.151 86.698 228.156C86.404 228.186 86.109 228.216 85.814 228.246C85.783 228.251 85.752 228.256 85.721 228.261C85.427 228.291 85.132 228.321 84.837 228.35C84.81 228.355 84.783 228.36 84.756 228.365C84.462 228.394 84.167 228.424 83.872 228.453C83.841 228.458 83.81 228.463 83.779 228.468C83.485 228.497 83.19 228.526 82.895 228.555C82.868 228.56 82.841 228.565 82.814 228.57C82.52 228.599 82.225 228.628 81.93 228.656C81.899 228.661 81.868 228.666 81.837 228.671C81.543 228.699 81.248 228.728 80.953 228.756C80.926 228.761 80.899 228.766 80.872 228.771C80.578 228.799 80.283 228.827 79.988 228.855C79.957 228.86 79.926 228.865 79.895 228.87C79.601 228.898 79.306 228.926 79.011 228.953C78.984 228.958 78.957 228.963 78.93 228.968C78.636 228.995 78.341 229.023 78.046 229.05C78.015 229.055 77.984 229.06 77.953 229.065C77.659 229.092 77.364 229.12 77.069 229.147C77.042 229.152 77.015 229.157 76.988 229.162C76.694 229.189 76.399 229.216 76.104 229.243C76.073 229.248 76.042 229.253 76.011 229.258C75.717 229.285 75.422 229.312 75.127 229.338C75.1 229.343 75.073 229.348 75.046 229.353C74.752 229.379 74.457 229.406 74.162 229.432C74.131 229.437 74.1 229.442 74.069 229.447C73.775 229.473 73.48 229.499 73.185 229.525C73.158 229.53 73.131 229.535 73.104 229.54C72.81 229.566 72.515 229.592 72.22 229.617C72.189 229.622 72.158 229.627 72.127 229.632C71.833 229.658 71.538 229.683 71.243 229.709C71.216 229.714 71.189 229.719 71.162 229.724C70.868 229.749 70.573 229.775 70.278 229.8C70.247 229.805 70.216 229.81 70.185 229.815C69.891 229.84 69.596 229.866 69.301 229.891C69.274 229.896 69.247 229.901 69.22 229.906C68.926 229.931 68.631 229.956 68.336 229.981C68.305 229.986 68.274 229.991 68.243 229.996C67.949 230.021 67.654 230.046 67.359 230.071C67.332 230.076 67.305 230.081 67.278 230.086C66.984 230.111 66.689 230.136 66.394 230.16C66.363 230.165 66.332 230.17 66.301 230.175C66.007 230.2 65.712 230.224 65.417 230.249C65.39 230.254 65.363 230.259 65.336 230.264C65.042 230.288 64.747 230.313 64.452 230.337C64.421 230.342 64.39 230.347 64.359 230.352C64.065 230.376 63.77 230.401 63.475 230.425C63.448 230.43 63.421 230.435 63.394 230.44C63.1 230.464 62.805 230.488 62.51 230.512C62.479 230.517 62.448 230.522 62.417 230.527C62.123 230.551 61.828 230.575 61.533 230.599C61.506 230.604 61.479 230.609 61.452 230.614C61.158 230.638 60.863 230.662 60.568 230.685C60.537 230.69 60.506 230.695 60.475 230.7C60.181 230.724 59.886 230.747 59.591 230.771C59.564 230.776 59.537 230.781 59.51 230.786C59.216 230.809 58.921 230.833 58.626 230.856C58.595 230.861 58.564 230.866 58.533 230.871C58.239 230.894 57.944 230.918 57.649 230.941C57.622 230.946 57.595 230.951 57.568 230.956C57.274 230.979 56.979 231.002 56.684 231.025C56.653 231.03 56.622 231.035 56.591 231.04C56.297 231.063 56.002 231.086 55.707 231.108C55.68 231.113 55.653 231.118 55.626 231.123C55.332 231.146 55.037 231.168 54.742 231.191C54.711 231.196 54.68 231.201 54.649 231.206C54.355 231.228 54.06 231.251 53.765 231.273C53.738 231.278 53.711 231.283 53.684 231.288C53.39 231.31 53.095 231.332 52.8 231.354C52.769 231.359 52.738 231.364 52.707 231.369C52.413 231.391 52.118 231.413 51.823 231.435C51.796 231.44 51.769 231.445 51.742 231.45C51.448 231.472 51.153 231.494 50.858 231.515C50.827 231.52 50.796 231.525 50.765 231.53C50.471 231.552 50.176 231.573 49.881 231.595C49.854 231.6 49.827 231.605 49.8 231.61C49.506 231.631 49.211 231.653 48.916 231.674C48.885 231.679 48.854 231.684 48.823 231.689C48.529 231.71 48.234 231.732 47.939 231.753C47.912 231.758 47.885 231.763 47.858 231.768C47.564 231.789 47.269 231.81 46.974 231.831C46.943 231.836 46.912 231.841 46.881 231.846C46.587 231.867 46.292 231.888 45.997 231.909C45.97 231.914 45.943 231.919 45.916 231.924C45.622 231.945 45.327 231.966 45.032 231.986C45.001 231.991 44.97 231.996 44.939 232.001C44.645 232.022 44.35 232.043 44.055 232.063C44.028 232.068 44.001 232.073 43.974 232.078C43.68 232.099 43.385 232.119 43.09 232.14C43.059 232.145 43.028 232.15 42.997 232.155C42.703 232.175 42.408 232.196 42.113 232.216C42.086 232.221 42.059 232.226 42.032 232.231C41.738 232.251 41.443 232.272 41.148 232.292C41.117 232.297 41.086 232.302 41.055 232.307C40.761 232.327 40.466 232.347 40.171 232.367C40.144 232.372 40.117 232.377 40.09 232.382C39.796 232.402 39.501 232.422 39.206 232.442C39.175 232.447 39.144 232.452 39.113 232.457C38.819 232.477 38.524 232.497 38.229 232.516C38.202 232.521 38.175 232.526 38.148 232.531C37.854 232.551 37.559 232.571 37.264 232.590C37.233 232.595 37.202 232.6 37.171 232.605C36.877 232.625 36.582 232.644 36.287 232.664C36.26 232.669 36.233 232.674 36.206 232.679C35.912 232.698 35.617 232.718 35.322 232.737C35.291 232.742 35.26 232.747 35.229 232.752C34.935 232.771 34.64 232.791 34.345 232.81C34.318 232.815 34.291 232.82 34.264 232.825C33.97 232.844 33.675 232.863 33.38 232.882C33.349 232.887 33.318 232.892 33.287 232.897C32.993 232.916 32.698 232.935 32.403 232.954C32.376 232.959 32.349 232.964 32.322 232.969C32.028 232.988 31.733 233.007 31.438 233.026C31.407 233.031 31.376 233.036 31.345 233.041C31.051 233.059 30.756 233.078 30.461 233.097C30.434 233.102 30.407 233.107 30.38 233.112C30.086 233.130 29.791 233.149 29.496 233.167C29.465 233.172 29.434 233.177 29.403 233.182C29.109 233.201 28.814 233.219 28.519 233.237C28.492 233.242 28.465 233.247 28.438 233.252C28.144 233.270 27.849 233.289 27.554 233.307C27.523 233.312 27.492 233.317 27.461 233.322C27.167 233.340 26.872 233.358 26.577 233.376C26.55 233.381 26.523 233.386 26.496 233.391C26.202 233.409 25.907 233.427 25.612 233.445C25.581 233.45 25.55 233.455 25.519 233.46C25.225 233.478 24.93 233.496 24.635 233.513C24.608 233.518 24.581 233.523 24.554 233.528C24.26 233.546 23.965 233.564 23.67 233.581C23.639 233.586 23.608 233.591 23.577 233.596C23.283 233.614 22.988 233.631 22.693 233.649C22.666 233.654 22.639 233.659 22.612 233.664C22.318 233.681 22.023 233.699 21.728 233.716C21.697 233.721 21.666 233.726 21.635 233.731C21.341 233.748 21.046 233.766 20.751 233.783C20.724 233.788 20.697 233.793 20.67 233.798C20.376 233.815 20.081 233.832 19.786 233.849C19.755 233.854 19.724 233.859 19.693 233.864C19.399 233.881 19.104 233.898 18.809 233.915C18.782 233.92 18.755 233.925 18.728 233.93C18.434 233.947 18.139 233.964 17.844 233.980C17.813 233.985 17.782 233.99 17.751 233.995C17.457 234.012 17.162 234.029 16.867 234.046C16.84 234.051 16.813 234.056 16.786 234.061C16.492 234.077 16.197 234.094 15.902 234.111C15.871 234.116 15.84 234.121 15.809 234.126C15.515 234.142 15.22 234.159 14.925 234.175C14.898 234.18 14.871 234.185 14.844 234.19C14.55 234.206 14.255 234.223 13.96 234.239C13.929 234.244 13.898 234.249 13.867 234.254C13.573 234.270 13.278 234.286 12.983 234.302C12.956 234.307 12.929 234.312 12.902 234.317C12.608 234.333 12.313 234.349 12.018 234.365C11.987 234.37 11.956 234.375 11.925 234.38C11.631 234.396 11.336 234.412 11.041 234.427C11.014 234.432 10.987 234.437 10.96 234.442C10.666 234.458 10.371 234.474 10.076 234.489C10.045 234.494 10.014 234.499 9.983 234.504C9.689 234.520 9.394 234.535 9.099 234.551C9.072 234.556 9.045 234.561 9.018 234.566C8.724 234.581 8.429 234.597 8.134 234.612C8.103 234.617 8.072 234.622 8.041 234.627C7.747 234.643 7.452 234.658 7.157 234.673C7.13 234.678 7.103 234.683 7.076 234.688C6.782 234.703 6.487 234.719 6.192 234.734C6.161 234.739 6.13 234.744 6.099 234.749C5.805 234.764 5.51 234.779 5.215 234.794C5.188 234.799 5.161 234.804 5.134 234.809C4.84 234.824 4.545 234.839 4.25 234.854C4.219 234.859 4.188 234.864 4.157 234.869C3.863 234.884 3.568 234.899 3.273 234.914C3.246 234.919 3.219 234.924 3.192 234.929C2.898 234.944 2.603 234.959 2.308 234.973C2.277 234.978 2.246 234.983 2.215 234.988C1.921 235.003 1.626 235.018 1.331 235.032C1.304 235.037 1.277 235.042 1.25 235.047C0.956 235.062 0.661 235.077 0.366 235.091C0.335 235.096 0.304 235.101 0.273 235.106C-0.021 235.121 -0.316 235.136 -0.611 235.15C-0.638 235.155 -0.665 235.16 -0.692 235.165C-0.986 235.180 -1.281 235.194 -1.576 235.209C-1.607 235.214 -1.638 235.219 -1.669 235.224C-1.963 235.238 -2.258 235.253 -2.553 235.267C-2.58 235.272 -2.607 235.277 -2.634 235.282C-2.928 235.296 -3.223 235.311 -3.518 235.325C-3.549 235.33 -3.58 235.335 -3.611 235.34C-3.905 235.354 -4.2 235.368 -4.495 235.382C-4.522 235.387 -4.549 235.392 -4.576 235.397C-4.87 235.411 -5.165 235.425 -5.46 235.439C-5.491 235.444 -5.522 235.449 -5.553 235.454C-5.847 235.468 -6.142 235.482 -6.437 235.496C-6.464 235.501 -6.491 235.506 -6.518 235.511C-6.812 235.525 -7.107 235.539 -7.402 235.552C-7.433 235.557 -7.464 235.562 -7.495 235.567C-7.789 235.581 -8.084 235.595 -8.379 235.608C-8.406 235.613 -8.433 235.618 -8.46 235.623C-8.754 235.637 -9.049 235.650 -9.344 235.664C-9.375 235.669 -9.406 235.674 -9.437 235.679C-9.731 235.692 -10.026 235.706 -10.321 235.719C-10.348 235.724 -10.375 235.729 -10.402 235.734C-10.696 235.748 -10.991 235.761 -11.286 235.774C-11.317 235.779 -11.348 235.784 -11.379 235.789C-11.673 235.802 -11.968 235.816 -12.263 235.829C-12.29 235.834 -12.317 235.839 -12.344 235.844C-12.638 235.857 -12.933 235.870 -13.228 235.883C-13.259 235.888 -13.29 235.893 -13.321 235.898C-13.615 235.911 -13.91 235.924 -14.205 235.937C-14.232 235.942 -14.259 235.947 -14.286 235.952C-14.58 235.965 -14.875 235.978 -15.17 235.990C-15.201 235.995 -15.232 236 -15.263 236.005C-15.557 236.018 -15.852 236.031 -16.147 236.043C-16.174 236.048 -16.201 236.053 -16.228 236.058C-16.522 236.071 -16.817 236.083 -17.112 236.096C-17.143 236.101 -17.174 236.106 -17.205 236.111C-17.499 236.123 -17.794 236.136 -18.089 236.148C-18.116 236.153 -18.143 236.158 -18.17 236.163C-18.464 236.176 -18.759 236.188 -19.054 236.200C-19.085 236.205 -19.116 236.21 -19.147 236.215C-19.441 236.228 -19.736 236.240 -20.031 236.252C-20.058 236.257 -20.085 236.262 -20.112 236.267C-20.406 236.279 -20.701 236.292 -20.996 236.304C-21.027 236.309 -21.058 236.314 -21.089 236.319C-21.383 236.331 -21.678 236.343 -21.973 236.355C-22 236.36 -22.027 236.365 -22.054 236.37C-22.348 236.382 -22.643 236.394 -22.938 236.406C-22.969 236.411 -23 236.416 -23.031 236.421C-23.325 236.433 -23.62 236.445 -23.915 236.457C-23.942 236.462 -23.969 236.467 -23.996 236.472C-24.29 236.484 -24.585 236.496 -24.88 236.507C-24.911 236.512 -24.942 236.517 -24.973 236.522C-25.267 236.534 -25.562 236.546 -25.857 236.557C-25.884 236.562 -25.911 236.567 -25.938 236.572C-26.232 236.584 -26.527 236.595 -26.822 236.607C-26.853 236.612 -26.884 236.617 -26.915 236.622C-27.209 236.633 -27.504 236.645 -27.799 236.656C-27.826 236.661 -27.853 236.666 -27.88 236.671C-28.174 236.682 -28.469 236.694 -28.764 236.705C-28.795 236.71 -28.826 236.715 -28.857 236.72C-29.151 236.731 -29.446 236.742 -29.741 236.753C-29.768 236.758 -29.795 236.763 -29.822 236.768C-30.116 236.779 -30.411 236.791 -30.706 236.802C-30.737 236.807 -30.768 236.812 -30.799 236.817C-31.093 236.828 -31.388 236.839 -31.683 236.850C-31.71 236.855 -31.737 236.86 -31.764 236.865C-32.058 236.876 -32.353 236.887 -32.648 236.897C-32.679 236.902 -32.71 236.907 -32.741 236.912C-33.035 236.923 -33.33 236.934 -33.625 236.945C-33.652 236.95 -33.679 236.955 -33.706 236.96C-34 236.970 -34.295 236.981 -34.59 236.992C-34.621 236.997 -34.652 237.002 -34.683 237.007C-34.977 237.017 -35.272 237.028 -35.567 237.038C-35.594 237.043 -35.621 237.048 -35.648 237.053C-35.942 237.064 -36.237 237.074 -36.532 237.085C-36.563 237.09 -36.594 237.095 -36.625 237.1C-36.919 237.110 -37.214 237.121 -37.509 237.131C-37.536 237.136 -37.563 237.141 -37.59 237.146C-37.884 237.156 -38.179 237.167 -38.474 237.177C-38.505 237.182 -38.536 237.187 -38.567 237.192C-38.861 237.202 -39.156 237.212 -39.451 237.222C-39.478 237.227 -39.505 237.232 -39.532 237.237C-39.826 237.247 -40.121 237.258 -40.416 237.268C-40.447 237.273 -40.478 237.278 -40.509 237.283C-40.803 237.293 -41.098 237.303 -41.393 237.313C-41.42 237.318 -41.447 237.323 -41.474 237.328C-41.768 237.338 -42.063 237.348 -42.358 237.358C-42.389 237.363 -42.42 237.368 -42.451 237.373C-42.745 237.383 -43.04 237.393 -43.335 237.403C-43.362 237.408 -43.389 237.413"/>
</svg>